<?xml version="1.0" encoding="UTF-8"?>
<svg xmlns="http://www.w3.org/2000/svg" width="256" height="256" viewBox="0 0 256 256" role="img" aria-label="Black Bag Security logo">
  <defs>
    <linearGradient id="g" x1="0" y1="0" x2="1" y2="1">
      <stop offset="0" stop-color="#b6ff3b" stop-opacity="0.95"/>
      <stop offset="1" stop-color="#4de1ff" stop-opacity="0.85"/>
    </linearGradient>
    <filter id="glow" x="-50%" y="-50%" width="200%" height="200%">
      <feGaussianBlur stdDeviation="3" result="b"/>
      <feMerge>
        <feMergeNode in="b"/>
        <feMergeNode in="SourceGraphic"/>
      </feMerge>
    </filter>
  </defs>

  <circle cx="128" cy="128" r="112" fill="none" stroke="url(#g)" stroke-width="6" filter="url(#glow)"/>
  <circle cx="128" cy="128" r="104" fill="none" stroke="#1a2330" stroke-width="2"/>

  <g transform="translate(0,2)">
    <circle cx="128" cy="78" r="18" fill="#e8f0ff" opacity="0.92"/>
    <rect x="110" y="74" width="36" height="8" rx="4" fill="#050607" opacity="0.95"/>
    <rect x="110" y="74" width="16" height="8" rx="4" fill="#050607"/>
    <rect x="130" y="74" width="16" height="8" rx="4" fill="#050607"/>

    <path d="M92 196
             C98 160, 104 132, 116 114
             C120 108, 124 104, 128 104
             C132 104, 136 108, 140 114
             C152 132, 158 160, 164 196
             L150 196
             C146 170, 142 150, 136 134
             L128 168
             L120 134
             C114 150, 110 170, 106 196
             Z"
          fill="#e8f0ff" opacity="0.88"/>

    <path d="M128 108 L136 118 L128 130 L120 118 Z" fill="#050607" opacity="0.9"/>
    <path d="M128 130 L136 168 L128 180 L120 168 Z" fill="#050607" opacity="0.9"/>

    <g transform="translate(156,150)">
      <rect x="-8" y="0" width="52" height="34" rx="6" fill="#e8f0ff" opacity="0.9"/>
      <rect x="10" y="-8" width="16" height="10" rx="4" fill="#e8f0ff" opacity="0.9"/>
      <rect x="-8" y="12" width="52" height="2" fill="#050607" opacity="0.6"/>
    </g>

    <path d="M62 128 L86 128" stroke="#4de1ff" stroke-width="2" opacity="0.55"/>
    <path d="M170 98 L192 86" stroke="#b6ff3b" stroke-width="2" opacity="0.55"/>
    <path d="M176 116 L200 116" stroke="#b6ff3b" stroke-width="2" opacity="0.45"/>
  </g>

  <text x="128" y="232" text-anchor="middle" font-family="ui-monospace, Menlo, Consolas, monospace" font-size="14" fill="#a8b3c7">
    blackbagsecurity.com
  </text>
</svg>
